<?xml version="1.0" standalone="no"?>
<!DOCTYPE svg PUBLIC "-//W3C//DTD SVG 20010904//EN"
 "http://www.w3.org/TR/2001/REC-SVG-20010904/DTD/svg10.dtd">
<svg version="1.0" xmlns="http://www.w3.org/2000/svg"
 width="131.000000pt" height="151.000000pt" viewBox="0 0 131.000000 151.000000"
 preserveAspectRatio="xMidYMid meet">
<metadata>
Created by potrace 1.11, written by Peter Selinger 2001-2013
</metadata>
<g transform="translate(0.000000,151.000000) scale(0.100000,-0.100000)"
fill="#000000" stroke="none">
<path d="M567 1197 c-37 -166 -67 -313 -67 -325 0 -32 44 -40 78 -15 21 16 28
33 39 94 22 132 73 218 154 260 41 21 128 26 159 9 45 -24 43 -123 -5 -186
-27 -35 -116 -84 -152 -84 -19 0 -23 -5 -23 -33 0 -72 50 -95 123 -58 42 22
47 12 17 -36 -41 -67 -124 -90 -203 -55 -26 12 -47 25 -47 29 0 4 -4 14 -9 22
-8 12 -16 9 -45 -17 -66 -58 -156 -65 -196 -15 -31 40 -25 98 41 398 34 152
59 278 56 281 -12 12 -110 -50 -161 -101 -151 -151 -175 -395 -56 -570 37 -54
118 -129 168 -154 129 -66 295 -66 424 0 50 25 131 100 168 154 110 162 99
381 -27 541 -74 92 -214 164 -321 164 l-49 0 -66 -303z"/>
<path d="M827 1150 c-23 -27 -67 -126 -67 -150 0 -27 74 5 105 46 20 27 37 91
30 114 -9 29 -40 24 -68 -10z"/>
<path d="M22 490 c-28 -12 -30 -55 -3 -70 11 -5 42 -10 70 -10 l51 0 0 -172
c0 -95 3 -183 6 -196 4 -13 17 -25 32 -29 46 -11 52 12 52 214 l0 183 51 0
c28 0 59 5 70 10 25 14 25 56 0 70 -24 12 -297 12 -329 0z"/>
<path d="M497 487 c-21 -15 -178 -414 -175 -441 4 -27 34 -44 55 -30 9 5 28
41 42 79 l27 70 69 0 69 0 27 -70 c15 -38 34 -74 43 -80 20 -13 50 5 54 31 4
30 -154 427 -175 441 -15 10 -23 10 -36 0z m58 -224 c6 -22 3 -23 -39 -23 -25
0 -46 2 -46 4 0 2 10 30 22 62 l22 58 17 -40 c9 -21 20 -49 24 -61z"/>
<path d="M780 492 c-17 -6 -30 -22 -30 -39 0 -6 32 -52 70 -102 39 -49 70 -94
70 -99 0 -5 -31 -49 -70 -98 -71 -90 -80 -110 -58 -132 26 -26 49 -11 115 73
37 47 69 85 72 85 3 0 35 -39 71 -85 68 -90 98 -106 120 -64 13 24 7 36 -82
147 l-58 73 75 98 c41 53 75 102 75 108 0 16 -40 42 -55 37 -7 -3 -43 -43 -80
-90 l-67 -85 -65 83 c-69 89 -80 98 -103 90z"/>
<path d="M1225 468 c-3 -13 -4 -117 -3 -232 3 -186 5 -210 21 -220 12 -8 22
-8 35 0 15 10 17 33 17 240 l0 229 -32 3 c-27 3 -33 -1 -38 -20z"/>
</g>
</svg>
