<?xml version="1.0" encoding="UTF-8" standalone="no"?>
<!-- Created with Inkscape (http://www.inkscape.org/) -->

<svg
   xmlns:dc="http://purl.org/dc/elements/1.1/"
   xmlns:cc="http://creativecommons.org/ns#"
   xmlns:rdf="http://www.w3.org/1999/02/22-rdf-syntax-ns#"
   xmlns:svg="http://www.w3.org/2000/svg"
   xmlns="http://www.w3.org/2000/svg"
   xmlns:sodipodi="http://sodipodi.sourceforge.net/DTD/sodipodi-0.dtd"
   xmlns:inkscape="http://www.inkscape.org/namespaces/inkscape"
   width="81.436996mm"
   height="44.100025mm"
   viewBox="0 0 288.55629 156.25993"
   id="svg3572"
   version="1.1"
   inkscape:version="0.91 r13725"
   sodipodi:docname="logo_le.taxi_un_clic_un_taxi.svg">
  <defs
     id="defs3574" />
  <sodipodi:namedview
     id="base"
     pagecolor="#ffffff"
     bordercolor="#666666"
     borderopacity="1.0"
     inkscape:pageopacity="0.0"
     inkscape:pageshadow="2"
     inkscape:zoom="0.35"
     inkscape:cx="-287.86472"
     inkscape:cy="-221.87006"
     inkscape:document-units="px"
     inkscape:current-layer="layer1"
     showgrid="false"
     fit-margin-top="0"
     fit-margin-left="0"
     fit-margin-right="0"
     fit-margin-bottom="0"
     inkscape:window-width="1364"
     inkscape:window-height="750"
     inkscape:window-x="0"
     inkscape:window-y="16"
     inkscape:window-maximized="1" />
  <metadata
     id="metadata3577">
    <rdf:RDF>
      <cc:Work
         rdf:about="">
        <dc:format>image/svg+xml</dc:format>
        <dc:type
           rdf:resource="http://purl.org/dc/dcmitype/StillImage" />
        <dc:title></dc:title>
      </cc:Work>
    </rdf:RDF>
  </metadata>
  <g
     inkscape:label="Layer 1"
     inkscape:groupmode="layer"
     id="layer1"
     transform="translate(-215.72186,-154.23221)">
    <path
       inkscape:connector-curvature="0"
       id="path3390"
       style="fill:#ffffff;fill-opacity:1;fill-rule:nonzero;stroke:none"
       d="m 329.69686,211.21726 c 0,31.475 -25.515,56.9875 -56.9875,56.9875 -31.4725,0 -56.9875,-25.5125 -56.9875,-56.9875 0,-31.4725 25.515,-56.985 56.9875,-56.985 31.4725,0 56.9875,25.5125 56.9875,56.985" />
    <path
       inkscape:connector-curvature="0"
       id="path3392"
       style="fill:#ee2631;fill-opacity:1;fill-rule:nonzero;stroke:none"
       d="m 240.38066,283.70226 0,14.39 c 0,0.7575 0.1437,1.4725 0.4375,2.14875 0.29,0.67625 0.6812,1.265 1.18,1.7625 0.4975,0.505 1.0825,0.90625 1.76,1.19875 0.6725,0.2975 1.3912,0.445 2.1612,0.445 0.7663,0 1.4888,-0.1475 2.1625,-0.4375 0.6738,-0.28875 1.2625,-0.69125 1.765,-1.19875 0.5038,-0.5025 0.9,-1.09125 1.1888,-1.7625 0.2912,-0.67125 0.4362,-1.39 0.4362,-2.15625 l 0,-14.39 c 0,-0.45625 0.1625,-0.84625 0.4838,-1.16375 0.3187,-0.325 0.7087,-0.48375 1.1662,-0.48375 0.4538,0 0.845,0.15875 1.1688,0.48375 0.32,0.3175 0.4787,0.7075 0.4787,1.16375 l 0,14.39 c 0,0.80875 -0.1025,1.59 -0.3175,2.33125 -0.2112,0.75 -0.5125,1.44875 -0.8937,2.11 -0.385,0.66125 -0.8488,1.26 -1.385,1.79875 -0.5388,0.5375 -1.1413,1.00125 -1.7975,1.39 -0.6588,0.3925 -1.3638,0.68738 -2.1175,0.90513 -0.7463,0.20762 -1.5313,0.31737 -2.3388,0.31737 -2.4487,0 -4.5275,-0.86612 -6.2412,-2.6 -1.7275,-1.73375 -2.5963,-3.81375 -2.5963,-6.2525 l 0,-14.39 c 0,-0.45625 0.1588,-0.84625 0.4825,-1.16375 0.3263,-0.325 0.7113,-0.48375 1.1663,-0.48375 0.46,0 0.845,0.15875 1.17,0.48375 0.32,0.3175 0.48,0.7075 0.48,1.16375" />
    <path
       inkscape:connector-curvature="0"
       id="path3394"
       style="fill:#ee2631;fill-opacity:1;fill-rule:nonzero;stroke:none"
       d="m 257.80436,305.29476 0,-21.5925 c 0,-0.22625 0.041,-0.44375 0.1288,-0.64625 0.083,-0.2025 0.1987,-0.37375 0.3462,-0.5225 0.1525,-0.15625 0.3288,-0.27375 0.5238,-0.35625 0.1975,-0.0837 0.415,-0.1225 0.6537,-0.1225 0.4875,0 0.9113,0.2 1.275,0.605 l 13.8775,17.8425 0,-16.8 c 0,-0.45625 0.16,-0.84625 0.4813,-1.16375 0.32,-0.325 0.7112,-0.48375 1.1662,-0.48375 0.4575,0 0.8438,0.15875 1.1675,0.48375 0.32,0.3175 0.4775,0.7075 0.4775,1.16375 l 0,21.5925 c 0,0.24125 -0.04,0.45375 -0.1212,0.651 -0.082,0.20175 -0.1988,0.374 -0.3513,0.5225 -0.1487,0.15138 -0.3237,0.26663 -0.5275,0.3525 -0.2012,0.0825 -0.4162,0.124 -0.645,0.124 -0.4875,0 -0.9087,-0.19237 -1.2612,-0.5785 l -13.89,-17.839 0,16.7675 c 0,0.45375 -0.1613,0.84738 -0.4838,1.16763 -0.3225,0.32125 -0.7087,0.48237 -1.165,0.48237 -0.4562,0 -0.845,-0.16112 -1.1675,-0.48237 -0.3212,-0.32025 -0.485,-0.71388 -0.485,-1.16763" />
    <path
       inkscape:connector-curvature="0"
       id="path3396"
       style="fill:#ee2631;fill-opacity:1;fill-rule:nonzero;stroke:none"
       d="m 310.28436,301.34476 c 0.2275,0 0.44,0.0412 0.635,0.13125 0.2,0.0888 0.3713,0.205 0.5213,0.3475 0.1512,0.14625 0.2725,0.31875 0.3587,0.5225 0.087,0.2025 0.13,0.4175 0.13,0.64625 0,0.4375 -0.1687,0.8275 -0.5075,1.18375 -2.3175,1.844 -4.9275,2.76875 -7.8275,2.76875 -3.4425,0 -6.3775,-1.215 -8.8025,-3.6425 -2.43,-2.42375 -3.6425,-5.35875 -3.6425,-8.80375 0,-3.4325 1.2125,-6.36 3.6425,-8.78875 2.4313,-2.43625 5.3713,-3.655 8.8025,-3.655 2.945,0 5.6038,0.9675 7.9813,2.9075 0.2887,0.27625 0.4362,0.6575 0.4362,1.1375 0,0.24 -0.041,0.455 -0.1262,0.655 -0.085,0.195 -0.2,0.36625 -0.3488,0.52 -0.1525,0.14875 -0.3275,0.26625 -0.5312,0.34625 -0.2,0.0863 -0.4163,0.13 -0.6425,0.13 -0.405,0 -0.785,-0.15625 -1.1375,-0.46875 -0.79,-0.62 -1.6563,-1.10125 -2.6075,-1.43125 -0.9475,-0.33375 -1.955,-0.4975 -3.0238,-0.4975 -2.53,0 -4.6912,0.89625 -6.49,2.6925 -1.7687,1.77 -2.6575,3.92375 -2.6575,6.4525 0,2.54125 0.8888,4.6975 2.6575,6.4725 1.7875,1.78 3.9463,2.67625 6.49,2.67625 2.1675,0 4.0775,-0.67 5.7238,-2.0075 0.2712,-0.185 0.5912,-0.285 0.9662,-0.295" />
    <path
       inkscape:connector-curvature="0"
       id="path3398"
       style="fill:#ee2631;fill-opacity:1;fill-rule:nonzero;stroke:none"
       d="m 314.92316,283.70226 c 0,-0.45625 0.1587,-0.84625 0.4787,-1.16375 0.3238,-0.325 0.7125,-0.48375 1.17,-0.48375 0.455,0 0.845,0.15875 1.1638,0.48375 0.3212,0.3175 0.485,0.7075 0.485,1.16375 l 0,19.945 11.5425,0 c 0.4562,0 0.8425,0.15875 1.1662,0.4825 0.3188,0.3175 0.4825,0.71125 0.4825,1.165 0,0.45375 -0.1637,0.84738 -0.4825,1.16763 -0.3237,0.32125 -0.71,0.48237 -1.1662,0.48237 l -13.1913,0 c -0.24,0 -0.4575,-0.0415 -0.6537,-0.124 -0.2,-0.0859 -0.37,-0.20112 -0.5225,-0.3525 -0.15,-0.1485 -0.265,-0.32075 -0.35,-0.5225 -0.081,-0.19725 -0.1225,-0.40975 -0.1225,-0.651 l 0,-21.5925" />
    <path
       inkscape:connector-curvature="0"
       id="path3400"
       style="fill:#ee2631;fill-opacity:1;fill-rule:nonzero;stroke:none"
       d="m 338.78816,305.29476 c 0,0.45375 -0.1613,0.84738 -0.4813,1.16763 -0.3237,0.32125 -0.7112,0.48237 -1.165,0.48237 -0.4587,0 -0.8475,-0.16112 -1.17,-0.48237 -0.3212,-0.32025 -0.4775,-0.71388 -0.4775,-1.16763 l 0,-21.5925 c 0,-0.45625 0.1563,-0.84625 0.4775,-1.16375 0.3225,-0.325 0.7113,-0.48375 1.17,-0.48375 0.4538,0 0.8413,0.15875 1.165,0.48375 0.32,0.3175 0.4813,0.7075 0.4813,1.16375 l 0,21.5925" />
    <path
       inkscape:connector-curvature="0"
       id="path3402"
       style="fill:#ee2631;fill-opacity:1;fill-rule:nonzero;stroke:none"
       d="m 361.82936,301.34476 c 0.2275,0 0.44,0.0412 0.6375,0.13125 0.1988,0.0888 0.3713,0.205 0.5213,0.3475 0.1525,0.14625 0.27,0.31875 0.36,0.5225 0.087,0.2025 0.1287,0.4175 0.1287,0.64625 0,0.4375 -0.1675,0.8275 -0.5125,1.18375 -2.3112,1.844 -4.9225,2.76875 -7.825,2.76875 -3.4437,0 -6.3762,-1.215 -8.8025,-3.6425 -2.4287,-2.42375 -3.6412,-5.35875 -3.6412,-8.80375 0,-3.4325 1.2125,-6.36 3.6412,-8.78875 2.4375,-2.43625 5.3738,-3.655 8.8025,-3.655 2.945,0 5.6063,0.9675 7.98,2.9075 0.29,0.27625 0.4388,0.6575 0.4388,1.1375 0,0.24 -0.042,0.455 -0.125,0.655 -0.085,0.195 -0.2025,0.36625 -0.3513,0.52 -0.1475,0.14875 -0.3275,0.26625 -0.5275,0.34625 -0.205,0.0863 -0.4187,0.13 -0.6475,0.13 -0.4012,0 -0.7812,-0.15625 -1.135,-0.46875 -0.7925,-0.62 -1.6587,-1.10125 -2.6062,-1.43125 -0.9488,-0.33375 -1.9563,-0.4975 -3.0263,-0.4975 -2.5275,0 -4.6925,0.89625 -6.4875,2.6925 -1.77,1.77 -2.6562,3.92375 -2.6562,6.4525 0,2.54125 0.8862,4.6975 2.6562,6.4725 1.7875,1.78 3.945,2.67625 6.4875,2.67625 2.1675,0 4.0775,-0.67 5.7263,-2.0075 0.2675,-0.1875 0.5925,-0.285 0.9637,-0.295" />
    <path
       inkscape:connector-curvature="0"
       id="path3404"
       style="fill:#ee2631;fill-opacity:1;fill-rule:nonzero;stroke:none"
       d="m 370.79686,304.73351 c 0,0.58125 -0.056,1.20988 -0.165,1.88513 -0.1112,0.67087 -0.2725,1.29887 -0.485,1.875 -0.215,0.57225 -0.4762,1.05125 -0.7837,1.42725 -0.3138,0.38137 -0.6713,0.57125 -1.075,0.57125 -0.3763,0 -0.6863,-0.12888 -0.9413,-0.39013 -0.2525,-0.25825 -0.3787,-0.57612 -0.3787,-0.95212 0,-0.32026 0.1125,-0.604 0.34,-0.86275 0.2262,-0.2535 0.3437,-0.51463 0.3437,-0.78375 0,-0.37013 -0.215,-0.77875 -0.6387,-1.20988 -0.425,-0.42975 -0.6375,-0.9475 -0.6375,-1.56 0,-0.61125 0.2162,-1.12875 0.6437,-1.56 0.435,-0.4325 0.9525,-0.65 1.5638,-0.65 0.6137,0 1.1337,0.2175 1.5637,0.65 0.43,0.43125 0.65,0.94875 0.65,1.56" />
    <path
       inkscape:connector-curvature="0"
       id="path3406"
       style="fill:#ee2631;fill-opacity:1;fill-rule:nonzero;stroke:none"
       d="m 386.92936,283.70226 0,14.39 c 0,0.7575 0.1463,1.4725 0.4375,2.14875 0.29,0.67625 0.6838,1.265 1.1838,1.7625 0.4937,0.505 1.0812,0.90625 1.7575,1.19875 0.6762,0.2975 1.3962,0.445 2.1587,0.445 0.7663,0 1.4888,-0.1475 2.1638,-0.4375 0.6725,-0.28875 1.2637,-0.69125 1.7662,-1.19875 0.5038,-0.5025 0.9013,-1.09125 1.19,-1.7625 0.29,-0.67125 0.4363,-1.39 0.4363,-2.15625 l 0,-14.39 c 0,-0.45625 0.1587,-0.84625 0.4812,-1.16375 0.3225,-0.325 0.7125,-0.48375 1.1675,-0.48375 0.4563,0 0.845,0.15875 1.1663,0.48375 0.3237,0.3175 0.4837,0.7075 0.4837,1.16375 l 0,14.39 c 0,0.80875 -0.1075,1.59 -0.32,2.33125 -0.215,0.7475 -0.5125,1.44875 -0.8962,2.11 -0.3825,0.66125 -0.845,1.26 -1.3825,1.79875 -0.5413,0.5375 -1.1413,1.00125 -1.795,1.39 -0.6613,0.39 -1.3663,0.68738 -2.1188,0.90513 -0.7512,0.20762 -1.5325,0.31737 -2.3425,0.31737 -2.4437,0 -4.5262,-0.86612 -6.2362,-2.6 -1.7325,-1.73375 -2.5975,-3.81375 -2.5975,-6.2525 l 0,-14.39 c 0,-0.45625 0.1587,-0.84625 0.4812,-1.16375 0.3225,-0.325 0.71,-0.48375 1.1675,-0.48375 0.4588,0 0.845,0.15875 1.1638,0.48375 0.325,0.3175 0.4837,0.7075 0.4837,1.16375" />
    <path
       inkscape:connector-curvature="0"
       id="path3408"
       style="fill:#ee2631;fill-opacity:1;fill-rule:nonzero;stroke:none"
       d="m 404.35566,305.29476 0,-21.5925 c 0,-0.22625 0.044,-0.44375 0.1275,-0.64625 0.082,-0.2025 0.1975,-0.37375 0.3462,-0.5225 0.1513,-0.15625 0.325,-0.27375 0.5225,-0.35625 0.1988,-0.0837 0.415,-0.1225 0.655,-0.1225 0.485,0 0.91,0.2 1.2763,0.605 l 13.8725,17.8425 0,-16.8 c 0,-0.45625 0.1612,-0.84625 0.4825,-1.16375 0.3212,-0.325 0.7125,-0.48375 1.17,-0.48375 0.455,0 0.8425,0.15875 1.165,0.48375 0.3225,0.3175 0.4825,0.7075 0.4825,1.16375 l 0,21.5925 c 0,0.24125 -0.044,0.45375 -0.1275,0.651 -0.08,0.20175 -0.1963,0.374 -0.3488,0.5225 -0.15,0.15138 -0.3262,0.26663 -0.5287,0.3525 -0.2013,0.0825 -0.4175,0.124 -0.6425,0.124 -0.49,0 -0.91,-0.19237 -1.2625,-0.5785 l -13.89,-17.839 0,16.7675 c 0,0.45375 -0.165,0.84738 -0.4838,1.16763 -0.3225,0.32125 -0.7087,0.48237 -1.165,0.48237 -0.4562,0 -0.8475,-0.16112 -1.1675,-0.48237 -0.3225,-0.32025 -0.4837,-0.71388 -0.4837,-1.16763" />
    <path
       inkscape:connector-curvature="0"
       id="path3410"
       style="fill:#ee2631;fill-opacity:1;fill-rule:nonzero;stroke:none"
       d="m 454.92066,285.35351 -6.1413,0 0,19.94125 c 0,0.45375 -0.1625,0.84738 -0.4837,1.16763 -0.3225,0.31837 -0.7125,0.48 -1.1688,0.48 -0.4562,0 -0.8437,-0.16163 -1.1637,-0.48 -0.3225,-0.32025 -0.4838,-0.71388 -0.4838,-1.16763 l 0,-19.94125 -6.1487,0 c -0.45,0 -0.84,-0.16125 -1.1613,-0.48125 -0.3225,-0.3225 -0.4837,-0.71 -0.4837,-1.17 0,-0.45625 0.1612,-0.84625 0.4837,-1.16375 0.3213,-0.325 0.7113,-0.48375 1.1613,-0.48375 l 15.59,0 c 0.4562,0 0.8487,0.15875 1.1675,0.48375 0.32,0.3175 0.4825,0.7075 0.4825,1.16375 0,0.46 -0.1625,0.8475 -0.4825,1.17 -0.3188,0.32 -0.7113,0.48125 -1.1675,0.48125" />
    <path
       inkscape:connector-curvature="0"
       id="path3412"
       style="fill:#ee2631;fill-opacity:1;fill-rule:nonzero;stroke:none"
       d="m 453.61686,304.54226 8.3063,-21.37125 c 0.3312,-0.7425 0.855,-1.11625 1.5712,-1.11625 0.7375,0 1.26,0.37375 1.5713,1.11625 l 8.3387,21.455 c 0.082,0.2075 0.1238,0.43 0.1238,0.66875 0,0.45375 -0.1613,0.84738 -0.4813,1.16763 -0.3212,0.32125 -0.7125,0.48237 -1.1687,0.48237 -0.455,0 -0.8375,-0.16112 -1.1513,-0.48237 -0.165,-0.1665 -0.2912,-0.34275 -0.3725,-0.52788 l -2.8775,-7.38975 -7.965,0 -2.895,7.38975 c -0.081,0.18513 -0.2062,0.36138 -0.3712,0.52788 -0.3238,0.32125 -0.7075,0.48237 -1.1663,0.48237 -0.4575,0 -0.845,-0.16112 -1.16,-0.48237 -0.3175,-0.32025 -0.4737,-0.71388 -0.4737,-1.16763 0,-0.25125 0.055,-0.49625 0.1712,-0.7525 m 12.5838,-9.29625 -2.7063,-6.985 -2.71,6.985 5.4163,0" />
    <path
       inkscape:connector-curvature="0"
       id="path3414"
       style="fill:#ee2631;fill-opacity:1;fill-rule:nonzero;stroke:none"
       d="m 479.44436,306.46239 c -0.32,0.31837 -0.71,0.48 -1.1675,0.48 -0.4562,0 -0.845,-0.15625 -1.1662,-0.47413 -0.3225,-0.31737 -0.4838,-0.70225 -0.4838,-1.1585 0,-0.39375 0.1188,-0.7425 0.3588,-1.04 l 7.6087,-9.77125 -7.6562,-9.83375 c -0.195,-0.27875 -0.2938,-0.6 -0.2938,-0.9625 0,-0.45625 0.1613,-0.84625 0.4825,-1.16375 0.32,-0.325 0.7113,-0.48375 1.165,-0.48375 0.4988,0 0.8888,0.15875 1.165,0.48375 l 7.2363,9.2675 7.2362,-9.2675 c 0.2875,-0.325 0.6788,-0.48375 1.1638,-0.48375 0.4562,0 0.8425,0.15875 1.1575,0.48375 0.3175,0.3175 0.4775,0.7075 0.4775,1.16375 0,0.3625 -0.099,0.68375 -0.2963,0.9625 l -7.6425,9.83375 7.61,9.77125 c 0.23,0.2975 0.3425,0.64625 0.3425,1.04 0,0.45625 -0.1587,0.84113 -0.475,1.1585 -0.3162,0.31788 -0.7012,0.47413 -1.16,0.47413 -0.5462,0 -0.9775,-0.19238 -1.2887,-0.59038 l -7.125,-9.16225 -7.2488,9.27263" />
    <path
       inkscape:connector-curvature="0"
       id="path3416"
       style="fill:#ee2631;fill-opacity:1;fill-rule:nonzero;stroke:none"
       d="m 504.21186,305.29476 c 0,0.45375 -0.1612,0.84738 -0.4837,1.16763 -0.3188,0.32125 -0.7125,0.48237 -1.1663,0.48237 -0.4562,0 -0.8412,-0.16112 -1.165,-0.48237 -0.3225,-0.32025 -0.4825,-0.71388 -0.4825,-1.16763 l 0,-21.5925 c 0,-0.45625 0.16,-0.84625 0.4825,-1.16375 0.3238,-0.325 0.7088,-0.48375 1.165,-0.48375 0.4538,0 0.8475,0.15875 1.1663,0.48375 0.3225,0.3175 0.4837,0.7075 0.4837,1.16375 l 0,21.5925" />
    <path
       inkscape:connector-curvature="0"
       id="path3418"
       style="fill:#1b458f;fill-opacity:1;fill-rule:nonzero;stroke:none"
       d="m 386.75316,189.12976 c -0.9638,-0.96125 -2.1388,-1.4475 -3.495,-1.4475 l -36.5675,0 c -1.3575,0 -2.5313,0.48625 -3.49,1.4475 -0.9575,0.9475 -1.445,2.12375 -1.445,3.48875 0,1.3675 0.4875,2.54375 1.4462,3.49125 0.9563,0.96 2.1288,1.44625 3.4888,1.44625 l 13.3512,0 0,45.7175 c 0,1.36 0.4838,2.53125 1.4388,3.48875 0.9512,0.95875 2.1287,1.4475 3.4937,1.4475 1.3575,0 2.5338,-0.48625 3.4925,-1.4475 0.9575,-0.9625 1.4438,-2.13375 1.4438,-3.48875 l 0,-45.7175 13.3475,0 c 1.3587,0 2.5362,-0.48625 3.495,-1.44875 0.955,-0.95875 1.4412,-2.13125 1.4412,-3.48875 0,-1.355 -0.4862,-2.52625 -1.4412,-3.48875" />
    <path
       inkscape:connector-curvature="0"
       id="path3420"
       style="fill:#1b458f;fill-opacity:1;fill-rule:nonzero;stroke:none"
       d="m 430.42686,241.31726 -19.5662,-50.32375 0,-0.0125 -0.01,-0.0125 c -0.8938,-2.14875 -2.5075,-3.28625 -4.6688,-3.28625 -1.4662,0 -3.4662,0.56625 -4.6587,3.26625 l -0.01,0.02 -0.01,0.025 -19.4823,50.11875 c -0.3212,0.70875 -0.4825,1.43625 -0.4825,2.16125 0,1.36 0.4775,2.53125 1.4225,3.48375 0.9375,0.96375 2.11,1.4525 3.4763,1.4525 1.365,0 2.54,-0.48875 3.49,-1.4475 0.485,-0.48125 0.8537,-1.00625 1.0975,-1.565 l 0.01,-0.02 0.01,-0.0188 6.5187,-16.65875 17.2388,0 6.4787,16.65625 0.01,0.0263 0.013,0.0275 c 0.2488,0.54875 0.6138,1.07125 1.0888,1.545 0.9275,0.96625 2.0937,1.455 3.4625,1.455 1.36,0 2.535,-0.48875 3.4937,-1.45 0.9538,-0.95 1.44,-2.12625 1.44,-3.48625 0,-0.68125 -0.1225,-1.33875 -0.36,-1.95625 m -30.6,-21.62125 6.355,-16.38375 6.3463,16.38375 -12.7013,0" />
    <path
       inkscape:connector-curvature="0"
       id="path3422"
       style="fill:#1b458f;fill-opacity:1;fill-rule:nonzero;stroke:none"
       d="m 483.96316,240.22101 -0.01,-0.007 0,-0.004 -17.3363,-22.25875 17.4113,-22.4175 0.012,-0.0163 0.015,-0.02 c 0.5887,-0.835 0.8862,-1.80375 0.8862,-2.87875 0,-1.355 -0.4762,-2.52625 -1.4137,-3.48125 -0.9513,-0.96875 -2.1225,-1.455 -3.4813,-1.455 -1.4487,0 -2.635,0.49875 -3.5275,1.485 l -0.026,0.0263 -0.024,0.0313 -16.13,20.6725 -16.1262,-20.6725 -0.019,-0.0213 -0.019,-0.0225 c -0.8679,-0.9938 -2.0617,-1.4988 -3.5454,-1.4988 -1.3563,0 -2.53,0.48625 -3.4913,1.445 -0.9587,0.955 -1.4437,2.13125 -1.4437,3.49125 0,1.0675 0.2962,2.03625 0.8875,2.87625 l 0.014,0.02 0.017,0.0187 17.4462,22.4175 -17.3337,22.25875 c -0.7063,0.895 -1.0663,1.94 -1.0663,3.0975 0,1.3675 0.49,2.53875 1.4513,3.47875 0.9525,0.945 2.1262,1.42375 3.4875,1.42375 1.355,0 2.5287,-0.48875 3.49,-1.4475 l 0.045,-0.0438 0.041,-0.0512 16.1637,-20.6725 15.8725,20.415 c 0.93,1.18 2.2675,1.8 3.8688,1.8 1.3637,0 2.535,-0.48125 3.48,-1.43125 0.9437,-0.94125 1.4225,-2.11125 1.4225,-3.47125 0,-1.155 -0.3425,-2.1925 -1.0225,-3.08625" />
    <path
       inkscape:connector-curvature="0"
       id="path3424"
       style="fill:#1b458f;fill-opacity:1;fill-rule:nonzero;stroke:none"
       d="m 502.83316,189.12726 c -0.9625,-0.95875 -2.1363,-1.445 -3.4925,-1.445 -1.3613,0 -2.5388,0.48625 -3.4975,1.445 -0.9563,0.9625 -1.44,2.13625 -1.44,3.49125 l 0,50.655 c 0,1.3575 0.485,2.52875 1.44,3.48875 0.9512,0.95875 2.1287,1.4475 3.4975,1.4475 1.3637,0 2.54,-0.48875 3.495,-1.45 0.9562,-0.955 1.4425,-2.12625 1.4425,-3.48625 l 0,-50.655 c 0,-1.3575 -0.4863,-2.53125 -1.445,-3.49125" />
    <path
       inkscape:connector-curvature="0"
       id="path3426"
       style="fill:#e71c2c;fill-opacity:1;fill-rule:nonzero;stroke:none"
       d="m 303.37066,199.43726 c 0,-2.94375 -0.7113,-4.82625 -2.9375,-4.82625 -5.885,0 -11.7675,13.05125 -14.2375,24.22125 9.18,-0.47875 17.175,-9.52625 17.175,-19.395" />
    <path
       inkscape:connector-curvature="0"
       id="path3428"
       style="fill:#e71c2c;fill-opacity:1;fill-rule:nonzero;stroke:none"
       d="m 272.71186,154.23226 c -0.6387,0 -1.2537,0.0813 -1.885,0.0937 l -16.375,74.345 c -0.355,1.52125 -0.4675,2.705 -0.4675,3.755 0,3.29625 1.5275,4.355 4.8125,4.355 3.5488,0 6.855,-2.685 8.9913,-6.61375 0,-0.23625 -0.049,-0.43625 -0.049,-0.68125 0,-13.5225 7.65,-41.845 31.7563,-41.845 10.4587,0 12.925,5.395 12.925,11.28125 0,13.635 -12.925,23.99 -27.0438,24.81 -0.1187,1.17625 -0.2312,2.46625 -0.2312,3.5275 0,7.41 3.1712,9.75875 7.29,9.75875 4.4612,0 10.1,-2.95 13.865,-6.23375 -2.4675,13.40875 -10.925,17.405 -20.3363,17.405 -8.4287,0 -14.6575,-3.27375 -17.0875,-10.85375 -6.4612,9.275 -14.3912,10.85375 -19.2487,10.85375 -7.0513,0 -12.5713,-4.2325 -12.5713,-14.11875 0,-2.22375 0.3425,-4.81875 0.9313,-7.63625 l 15.1937,-68.69125 c -21.8337,7.97375 -37.4587,28.8725 -37.4587,53.47625 0,31.48 25.5137,56.9875 56.9887,56.9875 31.4688,0 56.9838,-25.5075 56.9838,-56.9875 0,-31.47 -25.515,-56.9875 -56.9838,-56.9875" />
  </g>
</svg>
